<svg xmlns="http://www.w3.org/2000/svg" viewBox="0 0 501.08 140.87">
    <defs>
        <style>.cls-1{fill:#fff;}.cls-2{fill:#df1d4d;}.cls-3{fill:url(#gradient);}</style>
        <linearGradient id="gradient" y1="61.96" x2="66.14" y2="61.96" gradientUnits="userSpaceOnUse">
            <stop offset="0" stop-color="#df1d4d"/>
            <stop offset="0.35" stop-color="#dc1c4c"/>
            <stop offset="0.57" stop-color="#d41a48"/>
            <stop offset="0.76" stop-color="#c51641"/>
            <stop offset="0.93" stop-color="#b01138"/>
            <stop offset="1" stop-color="#a50e33"/>
        </linearGradient>
    </defs>
    <path class="cls-1"
          d="M150.78,91.67V47h12.59v4.73q4-6.19,12.24-6.2,8.58,0,13,7.89a15.73,15.73,0,0,1,14.19-7.89A15.93,15.93,0,0,1,214.27,50a23.64,23.64,0,0,1,2.5,2.9,10.61,10.61,0,0,1,1.51,3.31,22.73,22.73,0,0,1,.72,4.55q.18,2.64.18,6.56V91.67H205.87V67.86c0-3.58-.51-6.14-1.53-7.66s-2.72-2.28-5.12-2.28q-7.36,0-7.37,9.31V91.67h-13.3V67.23q0-9.31-6.92-9.31-7.55,0-7.55,9.31V91.67Z"/>
    <path class="cls-1" d="M254.9,47h14.19l-22.41,59.56H232.57l7.06-17.14L223,47h14.19l9,25.9Z"/>
    <path class="cls-1"
          d="M273.74,91.67V32.11h20c2.26,0,4.27.08,6,.22a35.83,35.83,0,0,1,4.82.72,22.12,22.12,0,0,1,4.1,1.34,30.89,30.89,0,0,1,3.8,2,24.82,24.82,0,0,1,7.23,6.87q5.44,7.59,5.45,18.4a35.9,35.9,0,0,1-2,12.32,27.46,27.46,0,0,1-5.67,9.47,25,25,0,0,1-8.84,6.07,29.82,29.82,0,0,1-11.52,2.14Zm15.18-13.39h6.51q7.15,0,10.85-4.15t3.71-12q0-8-3.75-12.32t-10.72-4.28h-6.6Z"/>
    <path class="cls-1"
          d="M379.73,47v44.7H367.22V86.89q-3.23,6.3-13.87,6.3a23.76,23.76,0,0,1-9.26-1.74,20.83,20.83,0,0,1-7.16-4.87,21.74,21.74,0,0,1-4.66-7.5,27.36,27.36,0,0,1-1.65-9.73,26.66,26.66,0,0,1,1.7-9.69,22.31,22.31,0,0,1,4.74-7.59,21.11,21.11,0,0,1,7.25-4.91,24.13,24.13,0,0,1,9.31-1.74A20.28,20.28,0,0,1,362,46.93a11.27,11.27,0,0,1,5.19,4.83V47ZM355.08,58a11.43,11.43,0,0,0-4.41.85,10.1,10.1,0,0,0-3.55,2.42,11.91,11.91,0,0,0-2.34,3.63,12.12,12.12,0,0,0,0,9,11.49,11.49,0,0,0,2.38,3.63,10.72,10.72,0,0,0,3.6,2.42,11.62,11.62,0,0,0,4.41.85,11.86,11.86,0,0,0,4.5-.85,10.45,10.45,0,0,0,3.56-2.38,11.12,11.12,0,0,0,2.34-3.63,12.14,12.14,0,0,0,.85-4.62,11.61,11.61,0,0,0-.85-4.48,11.37,11.37,0,0,0-2.34-3.59,10.46,10.46,0,0,0-3.6-2.37A12,12,0,0,0,355.08,58Z"/>
    <path class="cls-1" d="M403.57,32.11V47H410V57.11h-6.43V91.67h-13.3V57.11h-6.52V47h6.52V32.11Z"/>
    <path class="cls-1"
          d="M444.65,78.37a.81.81,0,0,1,.27-.32,3.12,3.12,0,0,0,.35-.31h13.57A26.54,26.54,0,0,1,450,89.08a21.47,21.47,0,0,1-12.85,4.11,23.18,23.18,0,0,1-9.2-1.83,22.94,22.94,0,0,1-7.46-5,23.83,23.83,0,0,1-6.83-16.87,24.27,24.27,0,0,1,6.79-17,23.37,23.37,0,0,1,7.36-5.09,22.18,22.18,0,0,1,9.07-1.87,23.24,23.24,0,0,1,16.83,7,23.54,23.54,0,0,1,5,7.72,25.74,25.74,0,0,1,1.78,9.64,14.34,14.34,0,0,1-.09,1.83c-.06.45-.15,1.06-.27,1.84H426.61a9,9,0,0,0,3.12,6,10,10,0,0,0,6.7,2.28,11.46,11.46,0,0,0,4.29-.72A12.8,12.8,0,0,0,444.65,78.37Zm2.41-13.75A9.35,9.35,0,0,0,443.62,59,10.42,10.42,0,0,0,437,56.85a10.53,10.53,0,0,0-6.57,2A9.39,9.39,0,0,0,427,64.62Z"/>
    <path class="cls-1"
          d="M483.13,45.51q7,0,11.43,3.75a14.74,14.74,0,0,1,5,10.27h-13q-.36-3.31-3.84-3.31a5.2,5.2,0,0,0-3,.81,2.41,2.41,0,0,0-1.16,2,3.41,3.41,0,0,0,1.61,2.72A16,16,0,0,0,485.39,64c2.33.66,4.23,1.22,5.69,1.7a25.86,25.86,0,0,1,3.64,1.43,8.89,8.89,0,0,1,2.37,1.65A19.43,19.43,0,0,1,499,71a12.16,12.16,0,0,1,2.06,7,13.19,13.19,0,0,1-1.43,6,14.61,14.61,0,0,1-3.93,4.82A19.1,19.1,0,0,1,489.83,92a22.56,22.56,0,0,1-7.32,1.16,21.78,21.78,0,0,1-6.88-1,16.53,16.53,0,0,1-5.45-2.94,15.2,15.2,0,0,1-3.75-4.65,16.79,16.79,0,0,1-1.78-6.2h13.21c.37,2.74,2.1,4.1,5.19,4.1a5.63,5.63,0,0,0,3.32-1,2.87,2.87,0,0,0,1.41-2.41c0-2-1.74-3.51-5.2-4.46l-7.89-2.06a11.57,11.57,0,0,1-3.81-1.74,13.45,13.45,0,0,1-3-2.81,13.05,13.05,0,0,1-2-3.62,12.2,12.2,0,0,1-.72-4.15,12.6,12.6,0,0,1,1.38-5.76,14.21,14.21,0,0,1,3.81-4.69,19.25,19.25,0,0,1,5.73-3.12A20.78,20.78,0,0,1,483.13,45.51Z"/>
    <path class="cls-2" d="M132.5,62c0,34.22-32.14,62-66.36,62S0,96.18,0,62,31.92,0,66.14,0,132.5,27.74,132.5,62Z"/>
    <path class="cls-3" d="M0,62c0,34.22,31.92,62,66.14,62V0C31.92,0,0,27.74,0,62Z"/>
    <path class="cls-1"
          d="M102.39,53.28c0-12.16-9.37-20.84-18.93-20.84A18,18,0,0,0,66.14,45.2,18,18,0,0,0,48.82,32.44c-9.56,0-18.94,8.68-18.94,20.84,0,18.41,28.26,39.5,35.23,41.7a2.64,2.64,0,0,0,.4.12,2.75,2.75,0,0,0,.58.08h.1a2.67,2.67,0,0,0,.57-.08,2.77,2.77,0,0,0,.41-.12C74.14,92.78,102.39,71.69,102.39,53.28Z"/>
    <path class="cls-2" d="M66,116.12v24.75s66.5-10.2,66.5-78.91Z"/>

</svg>
